<svg xmlns="http://www.w3.org/2000/svg" width="1587.168" height="888.111" viewBox="0 0 1587.168 888.111">
    <defs>
        <style>.a{opacity:0.15;}.b,.c{fill:#fff;}.c{fill-rule:evenodd;}</style>
    </defs>
    <g class="a">
        <circle class="b" cx="411.084" cy="755.055" r="14"/>
        <path class="c" d="M366.812,466.423l63.639-63.64a18,18,0,0,1,25.456,0h0a18,18,0,0,1,0,25.456l-63.639,63.64a18,18,0,0,1-25.456,0h0A18,18,0,0,1,366.812,466.423Z"/>
        <rect class="b" x="1187.084" y="230.055" width="68" height="16"/>
        <rect class="b" x="202.084" y="134.055" width="10" height="62"/>
        <rect class="b" x="1320.084" y="629.055" width="28" height="62"/>
        <circle class="b" cx="707.084" cy="150.055" r="31"/>
        <polygon class="c" points="916.107 732.055 947.084 677.055 883.084 677.055 916.107 732.055"/>
        <polygon class="c" points="1370.563 134.055 1385.084 159.837 1355.084 159.837 1370.563 134.055"/>
    </g>
</svg>