<svg xmlns="http://www.w3.org/2000/svg" width="200" height="71.426" viewBox="0 0 200 71.426">
    <g>
        <path class="cls-1" d="M40.279,69.826H0L22.283,37.047H2.7V27.452H40.779L18.751,60.231h21.5v9.595Z"/>
        <path class="cls-1" d="M57.326,69.826V27.452H69.5V69.826Z"/>
        <path class="cls-1" d="M102.391,38.387a19.488,19.488,0,0,1,5.308-9.251,12.434,12.434,0,0,1,8.524-3.068,28.205,28.205,0,0,1,3.823.411l.768.121-1.851,13.2a16.045,16.045,0,0,0-2.775-.8,15.608,15.608,0,0,0-2.934-.267q-5.579,0-8.036,2.862t-2.435,9.57V69.814H90.6V27.44H102.61Z"/>
        <rect class="cls-1" x="135.558" y="27.452" width="12.176" height="42.374"/>
        <path class="cls-1" d="M164.843,62.459l9.363-4.87a5.9,5.9,0,0,0,2.533,3.872,10.265,10.265,0,0,0,9.826.317,3.435,3.435,0,0,0,1.717-3.045q0-3.067-6.088-5.139-1.887-.645-3-1.083-7.427-2.816-10.278-5.663a9.571,9.571,0,0,1-2.85-7.05,12.261,12.261,0,0,1,4.872-10.073q4.869-3.849,12.76-3.848a19.931,19.931,0,0,1,9.741,2.289,13.645,13.645,0,0,1,6.015,6.466l-8.913,4.493a6.519,6.519,0,0,0-2.52-3.653,7.729,7.729,0,0,0-4.482-1.218,7.647,7.647,0,0,0-4.347,1.12,3.411,3.411,0,0,0-1.668,2.935q0,3.154,8.317,5.881l1.5.475q6.893,2.288,9.741,5.333a10.751,10.751,0,0,1,2.91,7.745,11.968,11.968,0,0,1-4.87,10.02q-4.87,3.654-13.065,3.653a23.583,23.583,0,0,1-11.117-2.435A12.176,12.176,0,0,1,164.843,62.459Z"/>
        <circle class="cls-1" cx="141.647" cy="9.251" r="9.251"/>
        <circle class="cls-1" cx="63.414" cy="9.251" r="9.251"/>
    </g>
</svg>